<!DOCTYPE svg PUBLIC "-//W3C//DTD SVG 20010904//EN" "http://www.w3.org/TR/2001/REC-SVG-20010904/DTD/svg10.dtd">
<svg version="1.0" xmlns="http://www.w3.org/2000/svg" width="200px" height="200px" viewBox="0 0 2000 2000" preserveAspectRatio="xMidYMid meet">
<g id="layer101" fill="#0b0909" stroke="none">
 <path d="M710 1074 c0 -58 -2 -65 -22 -73 -13 -5 -41 -16 -62 -25 l-39 -16 52 -48 53 -47 -27 -68 c-15 -37 -26 -70 -23 -72 2 -3 31 3 63 12 56 16 59 16 69 -1 30 -49 35 -52 50 -33 7 9 16 17 18 17 3 0 14 -29 23 -65 10 -35 21 -63 25 -60 3 2 19 37 35 77 15 40 29 75 31 76 1 2 16 -11 32 -29 l29 -33 27 43 28 43 30 -28 c28 -27 31 -28 42 -11 31 52 26 50 109 35 77 -15 77 -15 71 6 -4 12 -14 32 -24 46 -42 61 -43 68 -8 86 l32 17 -22 18 c-12 9 -27 19 -33 21 -8 3 -4 22 11 56 13 29 20 55 17 58 -3 3 -33 -9 -68 -26 -61 -31 -63 -32 -102 -16 -39 15 -42 15 -63 -5 l-22 -20 -31 50 c-17 28 -35 51 -41 51 -5 0 -25 -23 -44 -52 l-35 -51 -12 26 c-16 36 -34 40 -48 11 -6 -13 -14 -24 -18 -24 -5 0 -24 25 -43 55 -50 78 -60 78 -60 -1z"/>
 </g>
<g id="layer102" fill="#1d09e8" stroke="none">
 <path d="M730 1125 c0 -5 18 -37 40 -70 22 -33 40 -55 40 -50 0 6 -18 37 -40 70 -22 33 -40 56 -40 50z"/>
 <path d="M990 1074 c36 -59 50 -79 50 -71 0 13 -51 96 -63 104 -6 3 0 -11 13 -33z"/>
 <path d="M730 1042 c0 -42 -1 -44 -50 -65 l-51 -23 36 -34 c39 -38 44 -69 20 -127 -8 -20 -14 -37 -12 -39 2 -2 27 3 56 11 51 13 52 13 63 -11 14 -30 23 -30 42 -2 l15 21 11 -27 c5 -15 10 -31 10 -36 0 -5 5 -21 11 -37 11 -28 11 -27 37 39 15 36 30 69 34 73 3 3 18 -10 33 -30 l28 -36 24 41 c13 22 27 40 31 40 3 0 19 -12 35 -27 17 -16 31 -23 34 -17 15 42 29 48 89 37 33 -6 60 -10 61 -9 1 1 -13 27 -32 58 l-33 56 30 13 30 12 -26 14 c-31 16 -30 15 -10 54 23 45 14 51 -41 25 -47 -22 -52 -22 -84 -7 -32 15 -34 15 -57 -12 -12 -15 -25 -27 -28 -27 -2 0 -19 25 -36 55 -17 30 -33 55 -35 55 -1 0 -18 -25 -36 -55 -18 -30 -36 -55 -39 -55 -3 0 -14 14 -25 32 l-18 32 -16 -32 c-8 -18 -17 -32 -20 -32 -3 0 -23 26 -43 58 l-38 57 0 -43z"/>
 <path d="M861 1055 c0 -5 6 -21 14 -35 8 -14 14 -20 14 -15 0 6 -6 21 -14 35 -8 14 -14 21 -14 15z"/>
 <path d="M1276 945 c10 -8 24 -14 29 -14 6 0 1 6 -9 14 -11 8 -24 15 -30 15 -5 0 -1 -7 10 -15z"/>
 <path d="M1275 843 c29 -50 45 -72 45 -61 0 9 -62 108 -67 108 -3 0 7 -21 22 -47z"/>
 </g>
<g id="layer103" fill="#fc0e08" stroke="none">
 <path d="M730 1042 c0 -42 -1 -44 -50 -65 l-51 -23 36 -34 c39 -38 44 -69 20 -127 -8 -20 -14 -37 -12 -39 2 -2 27 3 56 11 51 13 52 13 63 -11 14 -30 23 -30 42 -2 l15 21 11 -27 c5 -15 10 -31 10 -36 0 -5 5 -21 11 -37 11 -28 11 -27 37 39 15 36 30 69 34 73 3 3 18 -10 33 -30 l28 -36 24 41 c13 22 27 40 31 40 3 0 19 -12 35 -27 17 -16 31 -23 34 -17 15 42 29 48 89 37 33 -6 60 -10 61 -9 1 1 -13 27 -32 58 l-33 56 30 13 30 12 -26 14 c-31 16 -30 15 -10 54 23 45 14 51 -41 25 -47 -22 -52 -22 -84 -7 -32 15 -34 15 -57 -12 -12 -15 -25 -27 -28 -27 -2 0 -19 25 -36 55 -17 30 -33 55 -35 55 -1 0 -18 -25 -36 -55 -18 -30 -36 -55 -39 -55 -3 0 -14 14 -25 32 l-18 32 -16 -32 c-8 -18 -17 -32 -20 -32 -3 0 -23 26 -43 58 l-38 57 0 -43z m2 -174 c2 -21 0 -38 -4 -38 -4 0 -7 24 -7 53 1 54 5 49 11 -15z m166 30 l37 -1 -37 -4 c-49 -5 -51 -30 -3 -36 l35 -4 -37 1 c-37 1 -38 2 -40 41 -1 22 1 32 4 23 3 -13 16 -19 41 -20z m122 -12 c0 -5 -7 -1 -15 10 -10 13 -14 15 -15 5 0 -8 -2 -12 -5 -9 -3 3 -2 13 1 23 7 17 8 17 21 -1 7 -10 13 -22 13 -28z m190 24 c0 -16 -7 -20 -35 -20 -44 0 -48 -26 -5 -34 30 -6 30 -6 -2 -3 -25 1 -33 7 -33 22 0 15 8 21 33 23 20 2 32 9 32 18 0 8 2 14 5 14 3 0 5 -9 5 -20z"/>
 </g>
<g id="layer104" fill="#9c8b88" stroke="none">
 <path d="M700 880 c0 -62 2 -70 19 -70 11 0 33 17 50 37 l31 38 0 -38 c0 -30 4 -37 20 -37 11 0 20 7 20 15 0 12 14 15 70 15 55 0 71 3 79 18 9 16 10 16 16 0 9 -22 43 -24 51 -3 4 8 10 15 15 15 5 0 9 -7 9 -15 0 -12 15 -15 71 -15 l70 0 -3 53 -3 52 -41 3 c-29 2 -45 -2 -55 -14 -11 -13 -11 -18 -1 -21 6 -3 10 -9 6 -14 -10 -17 -22 -9 -29 21 -8 37 -30 39 -49 3 l-14 -28 -11 28 c-15 38 -35 34 -54 -10 l-15 -38 -1 38 -1 37 -72 -1 c-71 -1 -74 -2 -105 -37 l-32 -37 -1 38 c0 30 -4 37 -20 37 -18 0 -20 -7 -20 -70z m32 -12 c2 -21 0 -38 -4 -38 -4 0 -7 24 -7 53 1 54 5 49 11 -15z m166 30 l37 -1 -37 -4 c-49 -5 -51 -30 -3 -36 l35 -4 -37 1 c-37 1 -38 2 -40 41 -1 22 1 32 4 23 3 -13 16 -19 41 -20z m122 -12 c0 -5 -7 -1 -15 10 -10 13 -14 15 -15 5 0 -8 -2 -12 -5 -9 -3 3 -2 13 1 23 7 17 8 17 21 -1 7 -10 13 -22 13 -28z m190 24 c0 -16 -7 -20 -35 -20 -44 0 -48 -26 -5 -34 30 -6 30 -6 -2 -3 -25 1 -33 7 -33 22 0 15 8 21 33 23 20 2 32 9 32 18 0 8 2 14 5 14 3 0 5 -9 5 -20z"/>
 </g>
<g id="layer105" fill="#685cee" stroke="none">
 <path d="M703 880 c2 -84 18 -91 66 -33 l31 38 0 -38 c0 -30 4 -37 20 -37 11 0 20 7 20 15 0 12 14 15 70 15 55 0 71 3 79 18 9 16 10 16 16 0 9 -22 43 -24 51 -3 4 8 10 15 15 15 5 0 9 -7 9 -15 0 -12 15 -15 71 -15 l70 0 -3 53 -3 52 -41 3 c-29 2 -45 -2 -55 -14 -11 -13 -11 -18 -1 -21 6 -3 10 -9 6 -14 -10 -17 -22 -9 -29 21 -8 37 -30 39 -49 3 l-14 -28 -11 28 c-15 38 -35 34 -54 -10 l-15 -38 -1 38 -1 37 -72 -1 c-71 -1 -74 -2 -105 -37 l-32 -37 -1 38 c0 30 -4 37 -20 37 -17 0 -19 -6 -17 -70z m29 -12 c2 -21 0 -38 -4 -38 -4 0 -7 24 -7 53 1 54 5 49 11 -15z m166 30 l37 -1 -37 -4 c-49 -5 -51 -30 -3 -36 l35 -4 -37 1 c-37 1 -38 2 -40 41 -1 22 1 32 4 23 3 -13 16 -19 41 -20z m122 -12 c0 -5 -7 -1 -15 10 -10 13 -14 15 -15 5 0 -8 -2 -12 -5 -9 -3 3 -2 13 1 23 7 17 8 17 21 -1 7 -10 13 -22 13 -28z m190 24 c0 -16 -7 -20 -35 -20 -44 0 -48 -26 -5 -34 30 -6 30 -6 -2 -3 -25 1 -33 7 -33 22 0 15 8 21 33 23 20 2 32 9 32 18 0 8 2 14 5 14 3 0 5 -9 5 -20z"/>
 </g>
<g id="layer106" fill="#ba65a4" stroke="none">
 <path d="M703 880 c2 -84 18 -91 66 -33 l31 38 0 -38 c0 -30 4 -37 20 -37 11 0 20 7 20 15 0 12 14 15 70 15 55 0 71 3 79 18 9 16 10 16 16 0 9 -22 43 -24 51 -3 4 8 10 15 15 15 5 0 9 -7 9 -15 0 -12 15 -15 71 -15 l70 0 -3 53 -3 52 -41 3 c-29 2 -45 -2 -55 -14 -11 -13 -11 -18 -1 -21 6 -3 10 -9 6 -14 -10 -17 -22 -9 -29 21 -8 37 -30 39 -49 3 l-14 -28 -11 28 c-15 38 -35 34 -54 -10 l-15 -38 -1 38 -1 37 -72 -1 c-71 -1 -74 -2 -105 -37 l-32 -37 -1 38 c0 30 -4 37 -20 37 -17 0 -19 -6 -17 -70z m38 -30 c5 0 9 3 9 8 1 10 61 75 66 70 5 -6 -79 -98 -89 -98 -4 0 -6 24 -5 53 1 50 2 50 5 10 2 -24 8 -43 14 -43z m123 65 c-5 -12 2 -15 30 -15 20 0 36 -4 36 -8 0 -4 -16 -6 -35 -4 -27 3 -35 1 -35 -11 0 -11 12 -17 35 -20 l35 -4 -37 1 c-36 1 -38 3 -41 39 -2 21 1 37 7 37 6 0 8 -7 5 -15z m146 2 c0 -7 7 -22 15 -33 14 -18 15 -18 27 14 7 17 15 32 19 32 8 0 31 -61 25 -67 -2 -3 -7 5 -11 16 -9 28 -19 26 -33 -4 -15 -33 -25 -32 -41 8 l-13 32 -14 -32 c-8 -18 -16 -33 -19 -33 -3 0 2 16 10 36 8 20 15 38 15 40 0 2 5 4 10 4 6 0 10 -6 10 -13z m200 -7 c0 -16 -7 -20 -35 -20 -50 0 -48 -27 3 -33 l37 -4 -43 -1 c-40 -2 -43 0 -40 21 2 17 11 23 36 25 24 2 32 7 28 18 -3 8 -1 14 4 14 6 0 10 -9 10 -20z"/>
 </g>
<g id="layer107" fill="#f96766" stroke="none">
 <path d="M703 880 c2 -84 18 -91 66 -33 l31 38 0 -38 c0 -30 4 -37 20 -37 11 0 20 7 20 15 0 12 14 15 70 15 55 0 71 3 79 18 9 16 10 16 16 0 9 -22 43 -24 51 -3 4 8 10 15 15 15 5 0 9 -7 9 -15 0 -12 15 -15 71 -15 l70 0 -3 53 -3 52 -41 3 c-29 2 -45 -2 -55 -14 -11 -13 -11 -18 -1 -21 6 -3 10 -9 6 -14 -10 -17 -22 -9 -29 21 -8 37 -30 39 -49 3 l-14 -28 -11 28 c-15 38 -35 34 -54 -10 l-15 -38 -1 38 -1 37 -72 -1 c-71 -1 -74 -2 -105 -37 l-32 -37 -1 38 c0 30 -4 37 -20 37 -17 0 -19 -6 -17 -70z m38 -30 c5 0 9 3 9 8 1 10 61 75 66 70 5 -6 -79 -98 -89 -98 -4 0 -6 24 -5 53 1 50 2 50 5 10 2 -24 8 -43 14 -43z m123 65 c-5 -12 2 -15 30 -15 20 0 36 -4 36 -8 0 -4 -16 -6 -35 -4 -27 3 -35 1 -35 -11 0 -11 12 -17 35 -20 l35 -4 -37 1 c-36 1 -38 3 -41 39 -2 21 1 37 7 37 6 0 8 -7 5 -15z m146 2 c0 -7 7 -22 15 -33 14 -18 15 -18 27 14 7 17 15 32 19 32 8 0 31 -61 25 -67 -2 -3 -7 5 -11 16 -9 28 -19 26 -33 -4 -15 -33 -25 -32 -41 8 l-13 32 -14 -32 c-8 -18 -16 -33 -19 -33 -3 0 2 16 10 36 8 20 15 38 15 40 0 2 5 4 10 4 6 0 10 -6 10 -13z m200 -7 c0 -16 -7 -20 -35 -20 -50 0 -48 -27 3 -33 l37 -4 -43 -1 c-40 -2 -43 0 -40 21 2 17 11 23 36 25 24 2 32 7 28 18 -3 8 -1 14 4 14 6 0 10 -9 10 -20z m-393 -62 c-2 -13 -4 -5 -4 17 -1 22 1 32 4 23 2 -10 2 -28 0 -40z"/>
 </g>
<g id="layer108" fill="#986ed0" stroke="none">
 <path d="M706 942 c-10 -16 0 -126 13 -130 6 -2 26 13 44 33 l32 37 5 -33 c6 -36 29 -51 36 -23 4 16 13 18 51 15 31 -2 48 1 54 10 6 10 9 11 9 2 0 -21 26 -14 38 10 l11 22 7 -22 c8 -27 39 -30 53 -5 9 16 11 16 23 0 10 -13 27 -16 73 -15 l60 2 3 44 c4 48 -6 61 -50 61 -29 0 -66 -29 -49 -39 6 -4 6 -12 1 -21 -7 -11 -13 -6 -25 23 -19 45 -32 47 -49 5 -12 -28 -14 -29 -20 -11 -4 12 -13 27 -21 33 -12 10 -18 5 -34 -31 l-20 -43 -3 40 c-3 38 -4 39 -42 42 -21 2 -43 -1 -49 -7 -8 -8 -8 -11 1 -11 6 0 9 -7 6 -15 -5 -12 2 -15 30 -15 20 0 36 -4 36 -8 0 -4 -16 -6 -35 -4 -27 3 -35 1 -35 -11 0 -11 12 -17 38 -20 l37 -4 -40 1 c-39 1 -40 2 -43 38 -2 20 -10 42 -18 49 -12 10 -21 6 -49 -21 -19 -19 -35 -39 -35 -44 0 -6 14 4 31 22 17 19 32 32 35 29 2 -2 -11 -21 -31 -41 -38 -40 -39 -39 -47 33 -3 25 -22 39 -32 23z m35 -92 c6 0 7 -4 4 -10 -15 -24 -25 -6 -23 43 1 50 2 50 5 10 2 -24 9 -43 14 -43z m269 67 c0 -7 7 -22 15 -33 14 -18 15 -18 27 14 7 17 15 32 19 32 8 0 31 -61 25 -67 -2 -3 -7 5 -11 16 -9 28 -19 26 -33 -4 -15 -33 -25 -32 -41 8 l-13 32 -14 -32 c-8 -18 -16 -33 -19 -33 -3 0 2 16 10 36 8 20 15 38 15 40 0 2 5 4 10 4 6 0 10 -6 10 -13z m200 -7 c0 -16 -7 -20 -35 -20 -50 0 -48 -27 3 -33 l37 -4 -43 -1 c-40 -2 -43 0 -40 21 2 17 11 23 36 25 24 2 32 7 28 18 -3 8 -1 14 4 14 6 0 10 -9 10 -20z m-393 -62 c-2 -13 -4 -5 -4 17 -1 22 1 32 4 23 2 -10 2 -28 0 -40z"/>
 </g>
<g id="layer109" fill="#9f97f1" stroke="none">
 <path d="M706 942 c-10 -16 0 -126 12 -130 6 -2 27 14 47 35 l35 38 0 -32 c0 -35 16 -51 32 -35 6 6 13 33 15 59 4 37 1 52 -11 62 -15 12 -21 10 -51 -19 -19 -19 -35 -39 -35 -44 0 -6 13 4 28 22 15 18 30 32 35 32 4 0 6 -24 5 -52 l-1 -53 -6 45 -6 44 -33 -42 c-19 -23 -38 -42 -43 -42 -5 0 -8 24 -7 53 1 50 2 50 5 9 2 -23 8 -40 12 -38 11 7 -2 89 -16 93 -6 2 -14 0 -17 -5z"/>
 <path d="M855 941 c-3 -6 -2 -11 4 -11 6 0 8 -7 5 -15 -5 -12 2 -15 30 -15 32 0 36 -3 36 -24 0 -22 -5 -25 -42 -29 l-43 -4 47 -1 c29 -1 48 3 51 11 4 10 6 10 6 0 2 -21 27 -15 39 10 l11 22 7 -22 c8 -27 39 -30 53 -5 9 16 11 16 23 0 10 -13 27 -16 73 -15 l60 2 3 44 c4 48 -6 61 -50 61 -28 0 -69 -31 -50 -38 6 -2 8 -11 5 -20 -5 -14 -3 -15 8 -4 7 6 26 12 42 12 22 0 28 4 23 15 -3 8 -1 15 4 15 6 0 10 -9 10 -20 0 -16 -7 -20 -35 -20 -50 0 -48 -27 3 -33 l37 -4 -39 -1 c-42 -2 -56 9 -82 66 -18 40 -31 41 -48 0 -12 -28 -14 -29 -20 -11 -4 12 -13 27 -21 33 -12 10 -18 5 -34 -31 l-20 -43 -3 40 c-3 38 -4 39 -45 42 -22 2 -44 -2 -48 -7z m164 -43 l12 -33 17 33 c8 17 19 32 23 32 9 0 33 -69 26 -76 -2 -3 -7 7 -11 21 -8 32 -20 32 -34 0 -16 -34 -28 -31 -42 8 l-12 32 -14 -32 c-13 -31 -28 -47 -19 -20 28 79 34 83 54 35z"/>
 <path d="M860 875 c0 -10 10 -15 30 -15 20 0 30 5 30 15 0 10 -10 15 -30 15 -20 0 -30 -5 -30 -15z"/>
 </g>
<g id="layer110" fill="#f39fa3" stroke="none">
 <path d="M706 942 c-10 -17 0 -127 12 -126 25 2 29 5 52 37 l23 32 -37 -34 -36 -35 2 65 c1 56 2 58 5 16 2 -26 8 -45 12 -43 11 7 -2 89 -16 93 -6 2 -14 0 -17 -5z"/>
 <path d="M780 915 c-18 -19 -31 -37 -28 -40 3 -3 17 10 32 30 15 19 31 35 37 35 5 0 9 -25 9 -55 0 -30 -4 -55 -10 -55 -5 0 -10 18 -10 41 0 22 -4 38 -9 34 -11 -6 -3 -75 10 -89 16 -17 31 10 37 65 l7 54 43 3 c25 2 42 -1 42 -7 0 -6 -18 -11 -40 -11 -22 0 -40 -4 -40 -10 0 -5 18 -10 41 -10 36 0 40 -2 37 -22 -2 -19 -11 -24 -48 -29 l-45 -6 47 -1 c29 -1 48 3 51 11 4 10 6 10 6 0 2 -21 27 -15 39 10 l11 22 7 -22 c8 -27 39 -30 53 -5 9 16 11 16 23 0 10 -13 27 -16 73 -15 l60 2 3 44 c4 48 -6 61 -50 61 -29 0 -66 -29 -49 -39 6 -4 6 -12 1 -21 -7 -11 -13 -6 -25 23 -19 45 -32 47 -49 5 -12 -28 -14 -29 -20 -11 -4 12 -13 27 -21 33 -12 10 -18 5 -34 -31 l-20 -43 -3 40 c-3 37 -5 39 -41 42 -21 2 -44 -2 -52 -8 -9 -8 -15 -8 -20 0 -10 16 -19 12 -55 -25z m237 -12 l15 -38 20 39 c11 21 21 36 22 34 12 -14 34 -88 27 -88 -5 0 -12 11 -15 25 -4 14 -11 25 -16 25 -5 0 -12 -11 -16 -25 -8 -33 -28 -32 -43 2 l-13 28 -15 -28 c-8 -16 -16 -27 -19 -25 -4 5 27 88 33 88 2 0 11 -17 20 -37z m188 7 c0 -21 -5 -26 -32 -28 -18 -2 -33 -8 -33 -14 0 -6 15 -8 35 -6 19 2 35 0 35 -4 0 -13 -77 -9 -82 5 -9 24 4 37 38 37 19 0 34 5 34 10 0 6 -16 10 -36 10 -22 0 -33 4 -29 11 4 5 21 9 38 7 27 -2 32 -7 32 -28z"/>
 <path d="M860 870 c0 -5 14 -10 30 -10 17 0 30 5 30 10 0 6 -13 10 -30 10 -16 0 -30 -4 -30 -10z"/>
 </g>
<g id="layer111" fill="#e3c8dc" stroke="none">
 <path d="M713 880 c0 -36 2 -50 4 -32 2 17 2 47 0 65 -2 17 -4 3 -4 -33z"/>
 <path d="M732 897 c-2 -55 3 -54 48 6 l32 42 -35 -40 -36 -39 -4 39 c-4 39 -4 39 -5 -8z"/>
 <path d="M830 884 c0 -32 -5 -54 -12 -57 -8 -3 -6 -6 4 -6 16 -1 20 10 32 95 1 12 -3 21 -11 21 -9 0 -13 -16 -13 -53z"/>
 <path d="M940 930 c0 -5 -18 -10 -40 -10 -22 0 -40 -4 -40 -10 0 -5 18 -10 39 -10 29 0 41 -5 44 -17 2 -10 4 -1 3 20 0 20 -1 37 -3 37 -2 0 -3 -4 -3 -10z"/>
 <path d="M1048 915 c-6 -13 -15 -22 -19 -19 -5 3 -9 1 -9 -5 0 -25 18 -17 33 14 9 19 14 35 12 35 -3 0 -10 -11 -17 -25z"/>
 <path d="M1120 926 c0 -8 7 -17 16 -20 25 -9 64 -7 64 4 0 6 -16 10 -36 10 -21 0 -33 4 -29 10 3 6 1 10 -4 10 -6 0 -11 -6 -11 -14z"/>
 <path d="M1207 917 c6 -28 -19 -51 -47 -44 -11 3 -20 1 -20 -4 0 -16 52 -9 66 9 15 20 18 48 5 56 -4 3 -6 -5 -4 -17z"/>
 <path d="M1005 873 c9 -20 23 -33 33 -32 16 1 16 2 0 6 -10 2 -18 8 -18 12 0 4 -7 16 -15 27 -14 17 -14 15 0 -13z"/>
 <path d="M1056 884 c-4 -9 -4 -19 -1 -22 3 -3 5 0 5 6 0 19 17 14 23 -7 4 -17 13 -19 68 -18 41 1 63 6 65 15 1 7 0 8 -3 2 -6 -13 -83 -13 -83 1 0 5 -4 8 -9 5 -5 -4 -11 -3 -14 1 -2 5 -2 2 -1 -4 2 -7 0 -13 -5 -13 -5 0 -12 11 -15 25 -7 29 -21 33 -30 9z"/>
 <path d="M754 848 l-29 -33 33 29 c30 28 37 36 29 36 -2 0 -16 -15 -33 -32z"/>
 <path d="M860 868 c0 -5 14 -8 30 -8 17 0 30 3 30 8 0 4 -13 7 -30 7 -16 0 -30 -3 -30 -7z"/>
 <path d="M976 865 c-3 -9 -10 -13 -16 -10 -5 3 -10 1 -10 -4 0 -17 27 -13 34 5 4 9 5 19 2 21 -2 2 -6 -3 -10 -12z"/>
 <path d="M890 850 l-45 -7 42 -1 c23 -1 45 3 48 8 3 6 5 9 3 8 -2 0 -23 -4 -48 -8z"/>
 </g>

</svg>